<svg xmlns="http://www.w3.org/2000/svg" xmlns:xlink="http://www.w3.org/1999/xlink" width="3840" height="2160" viewBox="0 0 3840 2160">
  <defs>
    <clipPath id="clip-BackgroundImage">
      <rect width="3840" height="2160"/>
    </clipPath>
  </defs>
  <g id="BackgroundImage" clip-path="url(#clip-BackgroundImage)">
    <rect width="3840" height="2160" fill="#fff"/>
    <rect id="mountains" width="3840" height="2160" fill="#14213d" opacity="0.999"/>
    <g id="Group_14" data-name="Group 14" transform="translate(-11.522 -574)" opacity="0.204">
      <g id="Group_4" data-name="Group 4" transform="translate(206.05 593)">
        <g id="Group_7" data-name="Group 7" transform="translate(127.124 154.473)">
          <path id="Icon_awesome-code" data-name="Icon awesome-code" d="M124.723,228.71l-27.277-7.915a5.374,5.374,0,0,1-3.667-6.663L154.817,3.876A5.374,5.374,0,0,1,161.48.21l27.277,7.915a5.374,5.374,0,0,1,3.667,6.663L131.386,225.043a5.358,5.358,0,0,1-6.663,3.667ZM73.747,178.538,93.2,157.79a5.366,5.366,0,0,0-.358-7.691L52.327,114.46,92.84,78.821A5.328,5.328,0,0,0,93.2,71.13L73.747,50.381a5.372,5.372,0,0,0-7.6-.224L1.709,110.525a5.33,5.33,0,0,0,0,7.825l64.436,60.412a5.332,5.332,0,0,0,7.6-.224Zm146.312.268,64.436-60.412a5.33,5.33,0,0,0,0-7.825L220.058,50.113a5.415,5.415,0,0,0-7.6.224L193,71.085a5.366,5.366,0,0,0,.358,7.691l40.513,35.684L193.363,150.1A5.328,5.328,0,0,0,193,157.79l19.452,20.748a5.373,5.373,0,0,0,7.6.268Z" transform="translate(7.621 5.44)" fill="#133783"/>
          <path id="Icon_awesome-code-2" data-name="Icon awesome-code" d="M124.723,228.71l-27.277-7.915a5.374,5.374,0,0,1-3.667-6.663L154.817,3.876A5.374,5.374,0,0,1,161.48.21l27.277,7.915a5.374,5.374,0,0,1,3.667,6.663L131.386,225.043a5.358,5.358,0,0,1-6.663,3.667ZM73.747,178.538,93.2,157.79a5.366,5.366,0,0,0-.358-7.691L52.327,114.46,92.84,78.821A5.328,5.328,0,0,0,93.2,71.13L73.747,50.381a5.372,5.372,0,0,0-7.6-.224L1.709,110.525a5.33,5.33,0,0,0,0,7.825l64.436,60.412a5.332,5.332,0,0,0,7.6-.224Zm146.312.268,64.436-60.412a5.33,5.33,0,0,0,0-7.825L220.058,50.113a5.415,5.415,0,0,0-7.6.224L193,71.085a5.366,5.366,0,0,0,.358,7.691l40.513,35.684L193.363,150.1A5.328,5.328,0,0,0,193,157.79l19.452,20.748a5.373,5.373,0,0,0,7.6.268Z" transform="translate(0.002 -0.003)" fill="#fca311"/>
        </g>
        <g id="Group_1" data-name="Group 1" transform="translate(0 0)">
          <g id="Ellipse_2" data-name="Ellipse 2" transform="translate(8 6)" fill="none" stroke="#133783" stroke-width="30">
            <ellipse cx="270" cy="269" rx="270" ry="269" stroke="none"/>
            <ellipse cx="270" cy="269" rx="255" ry="254" fill="none"/>
          </g>
          <g id="Ellipse_1" data-name="Ellipse 1" fill="none" stroke="#fca32b" stroke-width="30">
            <ellipse cx="270" cy="269" rx="270" ry="269" stroke="none"/>
            <ellipse cx="270" cy="269" rx="255" ry="254" fill="none"/>
          </g>
        </g>
      </g>
      <g id="Group_9" data-name="Group 9" transform="translate(3297.188 980.356) rotate(-49)">
        <g id="Group_5" data-name="Group 5" transform="translate(79.081 77.588)">
          <path id="Icon_material-gamepad" data-name="Icon material-gamepad" d="M123.177,52.114V0H66.326V52.114L94.752,80.539ZM52.114,66.326H0v56.851H52.114L80.539,94.752ZM66.326,137.39V189.5h56.851V137.39L94.752,108.965ZM137.39,66.326,108.965,94.752l28.426,28.426H189.5V66.326Z" transform="translate(60.901 5.495) rotate(17)" fill="#133783"/>
          <path id="Icon_material-gamepad-2" data-name="Icon material-gamepad" d="M123.177,52.114V0H66.326V52.114L94.752,80.539ZM52.114,66.326H0v56.851H52.114L80.539,94.752ZM66.326,137.39V189.5h56.851V137.39L94.752,108.965ZM137.39,66.326,108.965,94.752l28.426,28.426H189.5V66.326Z" transform="translate(55.406 0) rotate(17)" fill="#fca32b"/>
        </g>
        <g id="Group_2" data-name="Group 2" transform="translate(0)">
          <g id="Ellipse_2-2" data-name="Ellipse 2" transform="translate(6 4)" fill="none" stroke="#133783" stroke-width="30">
            <circle cx="194" cy="194" r="194" stroke="none"/>
            <circle cx="194" cy="194" r="179" fill="none"/>
          </g>
          <g id="Ellipse_1-2" data-name="Ellipse 1" fill="none" stroke="#fca32b" stroke-width="30">
            <circle cx="194" cy="194" r="194" stroke="none"/>
            <circle cx="194" cy="194" r="179" fill="none"/>
          </g>
        </g>
      </g>
      <g id="Group_6" data-name="Group 6" transform="translate(171.622 1979.141)">
        <path id="Icon_material-gamepad-3" data-name="Icon material-gamepad" d="M313.818,132.769V0H168.979V132.769L241.4,205.188Zm-181.049,36.21H0V313.818H132.769L205.188,241.4Zm36.21,181.049V482.8H313.818V350.027L241.4,277.608ZM350.027,168.979,277.608,241.4l72.419,72.419H482.8V168.979Z" transform="translate(155.156 14) rotate(17)" fill="#133783"/>
        <path id="Icon_material-gamepad-4" data-name="Icon material-gamepad" d="M313.818,132.769V0H168.979V132.769L241.4,205.188Zm-181.049,36.21H0V313.818H132.769L205.188,241.4Zm36.21,181.049V482.8H313.818V350.027L241.4,277.608ZM350.027,168.979,277.608,241.4l72.419,72.419H482.8V168.979Z" transform="translate(141.156 0) rotate(17)" fill="#fca32b"/>
      </g>
      <g id="Group_8" data-name="Group 8" transform="translate(40.085 1563.31) rotate(7)">
        <path id="Icon_awesome-code-3" data-name="Icon awesome-code" d="M124.725,228.707l-27.277-7.915a5.374,5.374,0,0,1-3.667-6.663L154.819,3.874A5.374,5.374,0,0,1,161.482.207l27.277,7.915a5.374,5.374,0,0,1,3.667,6.663L131.388,225.04a5.358,5.358,0,0,1-6.663,3.667ZM73.748,178.535,93.2,157.787a5.366,5.366,0,0,0-.358-7.691L52.329,114.457,92.842,78.818a5.328,5.328,0,0,0,.358-7.691L73.748,50.379a5.372,5.372,0,0,0-7.6-.224L1.71,110.522a5.33,5.33,0,0,0,0,7.825l64.436,60.412a5.332,5.332,0,0,0,7.6-.224Zm146.312.268L284.5,118.392a5.33,5.33,0,0,0,0-7.825L220.06,50.11a5.415,5.415,0,0,0-7.6.224L193.007,71.082a5.366,5.366,0,0,0,.358,7.691l40.513,35.684L193.364,150.1a5.328,5.328,0,0,0-.358,7.691l19.452,20.748a5.373,5.373,0,0,0,7.6.268Z" transform="translate(7.62 5.442)" fill="#133783"/>
        <path id="Icon_awesome-code-4" data-name="Icon awesome-code" d="M124.725,228.707l-27.277-7.915a5.374,5.374,0,0,1-3.667-6.663L154.819,3.874A5.374,5.374,0,0,1,161.482.207l27.277,7.915a5.374,5.374,0,0,1,3.667,6.663L131.388,225.04a5.358,5.358,0,0,1-6.663,3.667ZM73.748,178.535,93.2,157.787a5.366,5.366,0,0,0-.358-7.691L52.329,114.457,92.842,78.818a5.328,5.328,0,0,0,.358-7.691L73.748,50.379a5.372,5.372,0,0,0-7.6-.224L1.71,110.522a5.33,5.33,0,0,0,0,7.825l64.436,60.412a5.332,5.332,0,0,0,7.6-.224Zm146.312.268L284.5,118.392a5.33,5.33,0,0,0,0-7.825L220.06,50.11a5.415,5.415,0,0,0-7.6.224L193.007,71.082a5.366,5.366,0,0,0,.358,7.691l40.513,35.684L193.364,150.1a5.328,5.328,0,0,0-.358,7.691l19.452,20.748a5.373,5.373,0,0,0,7.6.268Z" transform="translate(0 0)" fill="#fca311"/>
      </g>
      <g id="Group_10" data-name="Group 10" transform="translate(3436.657 1505) rotate(24)">
        <path id="Icon_awesome-js" data-name="Icon awesome-js" d="M0,0V355.121H355.121V0ZM193.255,276.962c0,34.561-20.293,50.335-49.86,50.335-26.713,0-42.171-13.793-50.1-30.518l27.189-16.408c5.232,9.274,9.988,17.122,21.482,17.122,10.939,0,17.915-4.28,17.915-21.006V163.054h33.372ZM272.206,327.3c-30.994,0-51.049-14.744-60.8-34.085l27.189-15.7c7.134,11.652,16.488,20.293,32.9,20.293,13.793,0,22.671-6.9,22.671-16.488,0-11.415-9.037-15.457-24.335-22.2l-8.323-3.567c-24.1-10.226-40.03-23.146-40.03-50.335,0-25.049,19.1-44.073,48.829-44.073,21.244,0,36.463,7.372,47.4,26.713l-26,16.646c-5.707-10.226-11.89-14.268-21.482-14.268-9.75,0-15.933,6.183-15.933,14.268,0,9.988,6.183,14.03,20.53,20.293l8.323,3.567c28.378,12.128,44.311,24.573,44.311,52.475,0,29.963-23.622,46.451-55.25,46.451Z" transform="translate(4 4)" fill="#133783"/>
        <path id="Icon_awesome-js-2" data-name="Icon awesome-js" d="M0,0V355.121H355.121V0ZM193.255,276.962c0,34.561-20.293,50.335-49.86,50.335-26.713,0-42.171-13.793-50.1-30.518l27.189-16.408c5.232,9.274,9.988,17.122,21.482,17.122,10.939,0,17.915-4.28,17.915-21.006V163.054h33.372ZM272.206,327.3c-30.994,0-51.049-14.744-60.8-34.085l27.189-15.7c7.134,11.652,16.488,20.293,32.9,20.293,13.793,0,22.671-6.9,22.671-16.488,0-11.415-9.037-15.457-24.335-22.2l-8.323-3.567c-24.1-10.226-40.03-23.146-40.03-50.335,0-25.049,19.1-44.073,48.829-44.073,21.244,0,36.463,7.372,47.4,26.713l-26,16.646c-5.707-10.226-11.89-14.268-21.482-14.268-9.75,0-15.933,6.183-15.933,14.268,0,9.988,6.183,14.03,20.53,20.293l8.323,3.567c28.378,12.128,44.311,24.573,44.311,52.475,0,29.963-23.622,46.451-55.25,46.451Z" transform="translate(0 0)" fill="#fca311"/>
      </g>
      <g id="Group_11" data-name="Group 11" transform="matrix(0.914, -0.407, 0.407, 0.914, 3089.185, 2379.716)">
        <path id="Icon_simple-typescript" data-name="Icon simple-typescript" d="M0,181.046V362.091H362.091V0H0Zm291.8-14.423a45.018,45.018,0,0,1,22.646,13.05c3.334,3.561,8.283,10.048,8.675,11.617.121.453-15.63,11.014-25.165,16.943-.347.226-1.735-1.267-3.274-3.561-4.677-6.789-9.55-9.716-17.018-10.229-10.983-.754-18.044,4.994-17.984,14.589a13.277,13.277,0,0,0,1.539,6.789c2.414,4.994,6.91,8,20.971,14.076,25.935,11.164,37.024,18.512,43.919,28.967,7.694,11.662,9.429,30.295,4.194,44.145-5.733,15.057-19.99,25.286-40.056,28.665-6.2,1.1-20.911.935-27.579-.272-14.544-2.6-28.334-9.776-36.843-19.206-3.334-3.666-9.837-13.277-9.429-13.956a23.848,23.848,0,0,1,3.319-2.127c1.629-.92,7.71-4.436,13.458-7.77l10.41-6.035,2.188,3.229c3.048,4.647,9.7,11.029,13.729,13.156,11.557,6.1,27.413,5.235,35.228-1.78a13.322,13.322,0,0,0,4.722-10.863c0-4.194-.528-6.035-2.716-9.2-2.806-4.013-8.554-7.393-24.879-14.484-18.678-8.041-26.719-13.035-34.082-20.971a47.75,47.75,0,0,1-9.942-18.1c-1.373-5.115-1.72-17.939-.634-23.1,3.847-18.059,17.471-30.627,37.129-34.368,6.382-1.207,21.212-.754,27.474.8Zm-85,15.117.121,14.831H159.773V330.484H126.43V196.57h-47.1V182.026c0-8.057.166-14.785.392-14.936.181-.241,28.862-.362,63.622-.3l63.29.181Z" transform="translate(6 4)" fill="#fca32b"/>
        <path id="Icon_simple-typescript-2" data-name="Icon simple-typescript" d="M0,181.046V362.091H362.091V0H0Zm291.8-14.423a45.018,45.018,0,0,1,22.646,13.05c3.334,3.561,8.283,10.048,8.675,11.617.121.453-15.63,11.014-25.165,16.943-.347.226-1.735-1.267-3.274-3.561-4.677-6.789-9.55-9.716-17.018-10.229-10.983-.754-18.044,4.994-17.984,14.589a13.277,13.277,0,0,0,1.539,6.789c2.414,4.994,6.91,8,20.971,14.076,25.935,11.164,37.024,18.512,43.919,28.967,7.694,11.662,9.429,30.295,4.194,44.145-5.733,15.057-19.99,25.286-40.056,28.665-6.2,1.1-20.911.935-27.579-.272-14.544-2.6-28.334-9.776-36.843-19.206-3.334-3.666-9.837-13.277-9.429-13.956a23.848,23.848,0,0,1,3.319-2.127c1.629-.92,7.71-4.436,13.458-7.77l10.41-6.035,2.188,3.229c3.048,4.647,9.7,11.029,13.729,13.156,11.557,6.1,27.413,5.235,35.228-1.78a13.322,13.322,0,0,0,4.722-10.863c0-4.194-.528-6.035-2.716-9.2-2.806-4.013-8.554-7.393-24.879-14.484-18.678-8.041-26.719-13.035-34.082-20.971a47.75,47.75,0,0,1-9.942-18.1c-1.373-5.115-1.72-17.939-.634-23.1,3.847-18.059,17.471-30.627,37.129-34.368,6.382-1.207,21.212-.754,27.474.8Zm-85,15.117.121,14.831H159.773V330.484H126.43V196.57h-47.1V182.026c0-8.057.166-14.785.392-14.936.181-.241,28.862-.362,63.622-.3l63.29.181Z" transform="translate(0 0)" fill="#133783"/>
      </g>
      <g id="Group_12" data-name="Group 12" transform="translate(2659.481 823.192)">
        <path id="Icon_awesome-react" data-name="Icon awesome-react" d="M231.686,80.435q-4.487-1.5-8.975-2.825c.5-2.05.942-4.1,1.385-6.149,6.814-33.019,2.327-59.556-12.8-68.309-14.57-8.366-38.337.332-62.381,21.274-2.382,2.05-4.709,4.21-6.925,6.371-1.5-1.44-3.047-2.881-4.6-4.266C112.187,4.148,86.924-5.27,71.8,3.539,57.284,11.96,52.963,36.945,59.057,68.191c.609,3.1,1.274,6.149,2.05,9.252-3.546,1-7.036,2.105-10.3,3.269C21.219,90.961,0,107.138,0,123.869c0,17.285,22.6,34.626,53.351,45.152,2.493.831,4.986,1.662,7.535,2.382-.831,3.324-1.551,6.593-2.216,9.972C52.852,212.123,57.4,236.5,71.91,244.865c14.958,8.643,40.11-.222,64.6-21.662,1.939-1.717,3.878-3.49,5.817-5.374,2.438,2.382,4.986,4.654,7.535,6.87,23.712,20.388,47.146,28.642,61.606,20.277,14.958-8.643,19.833-34.847,13.518-66.758q-.748-3.656-1.662-7.479c1.773-.5,3.49-1.053,5.208-1.607,31.966-10.582,55.124-27.7,55.124-45.262,0-16.786-21.828-33.074-51.966-43.434ZM156.729,33.4c20.609-17.95,39.833-24.986,48.587-19.944,9.363,5.374,12.964,27.091,7.091,55.622-.388,1.884-.776,3.712-1.274,5.54a283.611,283.611,0,0,0-37.285-5.872,279.91,279.91,0,0,0-23.6-29.418c2.161-2.05,4.266-3.989,6.482-5.928ZM92.63,152.622c2.825,4.82,5.706,9.64,8.753,14.349a250.864,250.864,0,0,1-25.706-4.155,258.8,258.8,0,0,1,9.03-24.653c2.548,4.875,5.152,9.7,7.922,14.46ZM75.844,85.975c7.978-1.773,16.454-3.213,25.263-4.321-2.936,4.6-5.817,9.307-8.532,14.072-2.715,4.709-5.374,9.529-7.867,14.4-3.49-8.255-6.426-16.343-8.864-24.155Zm15.18,38.171c3.656-7.645,7.645-15.124,11.856-22.493S111.633,87.139,116.4,80.1c8.31-.609,16.786-.942,25.429-.942s17.174.332,25.429.942q7.064,10.471,13.462,21.44t12.022,22.382q-5.568,11.468-11.967,22.6c-4.21,7.368-8.7,14.515-13.407,21.606-8.255.609-16.842.886-25.54.886s-17.119-.277-25.263-.776q-7.23-10.554-13.629-21.606c-4.266-7.368-8.2-14.847-11.911-22.493Zm100.054,28.365c2.825-4.875,5.485-9.806,8.089-14.792a257.172,257.172,0,0,1,9.363,24.543,243.339,243.339,0,0,1-26.038,4.432C185.482,162.04,188.307,157.276,191.077,152.512Zm7.978-42.382c-2.6-4.875-5.263-9.751-8.033-14.515q-4.072-7.064-8.476-13.961a254.945,254.945,0,0,1,25.429,4.432,245.182,245.182,0,0,1-8.92,24.044ZM141.937,47.8a243.277,243.277,0,0,1,16.4,19.833c-10.969-.5-21.994-.5-32.963,0C130.8,60.491,136.4,53.843,141.937,47.8ZM77.672,13.843c9.307-5.429,29.972,2.327,51.744,21.606,1.385,1.219,2.77,2.548,4.21,3.878A281.464,281.464,0,0,0,109.86,68.745,292.034,292.034,0,0,0,72.63,74.507c-.72-2.825-1.33-5.706-1.939-8.587-5.208-26.814-1.773-47.035,6.981-52.077ZM64.1,159.88c-2.327-.665-4.6-1.385-6.87-2.161-11.8-3.712-25.207-9.584-34.9-17.285a24.859,24.859,0,0,1-10.415-16.565c0-10.138,17.507-23.1,42.769-31.911,3.158-1.108,6.371-2.105,9.584-3.047a294.589,294.589,0,0,0,13.573,35.235A302.836,302.836,0,0,0,64.1,159.88Zm64.6,54.293A101.4,101.4,0,0,1,97.45,233.729a24.521,24.521,0,0,1-19.556.72c-8.809-5.1-12.465-24.653-7.479-50.969.609-3.1,1.274-6.2,2.05-9.252a277.154,277.154,0,0,0,37.617,5.429,292.365,292.365,0,0,0,23.933,29.584C132.242,210.959,130.469,212.621,128.7,214.173Zm13.573-13.462c-5.651-6.094-11.3-12.853-16.786-20.111,5.318.222,10.8.332,16.343.332,5.706,0,11.3-.111,16.842-.388a238.921,238.921,0,0,1-16.4,20.166Zm72.409,16.62a24.622,24.622,0,0,1-9.141,17.34c-8.809,5.1-27.59-1.551-47.866-18.947-2.327-1.994-4.654-4.155-7.036-6.371a274.057,274.057,0,0,0,23.379-29.695,273.107,273.107,0,0,0,37.783-5.817c.554,2.271,1.053,4.543,1.5,6.759a100.992,100.992,0,0,1,1.385,36.731Zm10.083-59.556c-1.551.5-3.1,1-4.709,1.44a281.437,281.437,0,0,0-14.127-35.346A280.033,280.033,0,0,0,219.5,89.022c2.881.831,5.651,1.717,8.31,2.6,25.817,8.864,43.933,22.05,43.933,32.132,0,10.859-19.335,24.875-46.98,34.016Zm-82.935-8.31a25.374,25.374,0,1,0-25.374-25.374A25.37,25.37,0,0,0,141.826,149.464Z" transform="translate(10 216.075) rotate(-49)" fill="#133783"/>
        <path id="Icon_awesome-react-2" data-name="Icon awesome-react" d="M231.686,80.435q-4.487-1.5-8.975-2.825c.5-2.05.942-4.1,1.385-6.149,6.814-33.019,2.327-59.556-12.8-68.309-14.57-8.366-38.337.332-62.381,21.274-2.382,2.05-4.709,4.21-6.925,6.371-1.5-1.44-3.047-2.881-4.6-4.266C112.187,4.148,86.924-5.27,71.8,3.539,57.284,11.96,52.963,36.945,59.057,68.191c.609,3.1,1.274,6.149,2.05,9.252-3.546,1-7.036,2.105-10.3,3.269C21.219,90.961,0,107.138,0,123.869c0,17.285,22.6,34.626,53.351,45.152,2.493.831,4.986,1.662,7.535,2.382-.831,3.324-1.551,6.593-2.216,9.972C52.852,212.123,57.4,236.5,71.91,244.865c14.958,8.643,40.11-.222,64.6-21.662,1.939-1.717,3.878-3.49,5.817-5.374,2.438,2.382,4.986,4.654,7.535,6.87,23.712,20.388,47.146,28.642,61.606,20.277,14.958-8.643,19.833-34.847,13.518-66.758q-.748-3.656-1.662-7.479c1.773-.5,3.49-1.053,5.208-1.607,31.966-10.582,55.124-27.7,55.124-45.262,0-16.786-21.828-33.074-51.966-43.434ZM156.729,33.4c20.609-17.95,39.833-24.986,48.587-19.944,9.363,5.374,12.964,27.091,7.091,55.622-.388,1.884-.776,3.712-1.274,5.54a283.611,283.611,0,0,0-37.285-5.872,279.91,279.91,0,0,0-23.6-29.418c2.161-2.05,4.266-3.989,6.482-5.928ZM92.63,152.622c2.825,4.82,5.706,9.64,8.753,14.349a250.864,250.864,0,0,1-25.706-4.155,258.8,258.8,0,0,1,9.03-24.653c2.548,4.875,5.152,9.7,7.922,14.46ZM75.844,85.975c7.978-1.773,16.454-3.213,25.263-4.321-2.936,4.6-5.817,9.307-8.532,14.072-2.715,4.709-5.374,9.529-7.867,14.4-3.49-8.255-6.426-16.343-8.864-24.155Zm15.18,38.171c3.656-7.645,7.645-15.124,11.856-22.493S111.633,87.139,116.4,80.1c8.31-.609,16.786-.942,25.429-.942s17.174.332,25.429.942q7.064,10.471,13.462,21.44t12.022,22.382q-5.568,11.468-11.967,22.6c-4.21,7.368-8.7,14.515-13.407,21.606-8.255.609-16.842.886-25.54.886s-17.119-.277-25.263-.776q-7.23-10.554-13.629-21.606c-4.266-7.368-8.2-14.847-11.911-22.493Zm100.054,28.365c2.825-4.875,5.485-9.806,8.089-14.792a257.172,257.172,0,0,1,9.363,24.543,243.339,243.339,0,0,1-26.038,4.432C185.482,162.04,188.307,157.276,191.077,152.512Zm7.978-42.382c-2.6-4.875-5.263-9.751-8.033-14.515q-4.072-7.064-8.476-13.961a254.945,254.945,0,0,1,25.429,4.432,245.182,245.182,0,0,1-8.92,24.044ZM141.937,47.8a243.277,243.277,0,0,1,16.4,19.833c-10.969-.5-21.994-.5-32.963,0C130.8,60.491,136.4,53.843,141.937,47.8ZM77.672,13.843c9.307-5.429,29.972,2.327,51.744,21.606,1.385,1.219,2.77,2.548,4.21,3.878A281.464,281.464,0,0,0,109.86,68.745,292.034,292.034,0,0,0,72.63,74.507c-.72-2.825-1.33-5.706-1.939-8.587-5.208-26.814-1.773-47.035,6.981-52.077ZM64.1,159.88c-2.327-.665-4.6-1.385-6.87-2.161-11.8-3.712-25.207-9.584-34.9-17.285a24.859,24.859,0,0,1-10.415-16.565c0-10.138,17.507-23.1,42.769-31.911,3.158-1.108,6.371-2.105,9.584-3.047a294.589,294.589,0,0,0,13.573,35.235A302.836,302.836,0,0,0,64.1,159.88Zm64.6,54.293A101.4,101.4,0,0,1,97.45,233.729a24.521,24.521,0,0,1-19.556.72c-8.809-5.1-12.465-24.653-7.479-50.969.609-3.1,1.274-6.2,2.05-9.252a277.154,277.154,0,0,0,37.617,5.429,292.365,292.365,0,0,0,23.933,29.584C132.242,210.959,130.469,212.621,128.7,214.173Zm13.573-13.462c-5.651-6.094-11.3-12.853-16.786-20.111,5.318.222,10.8.332,16.343.332,5.706,0,11.3-.111,16.842-.388a238.921,238.921,0,0,1-16.4,20.166Zm72.409,16.62a24.622,24.622,0,0,1-9.141,17.34c-8.809,5.1-27.59-1.551-47.866-18.947-2.327-1.994-4.654-4.155-7.036-6.371a274.057,274.057,0,0,0,23.379-29.695,273.107,273.107,0,0,0,37.783-5.817c.554,2.271,1.053,4.543,1.5,6.759a100.992,100.992,0,0,1,1.385,36.731Zm10.083-59.556c-1.551.5-3.1,1-4.709,1.44a281.437,281.437,0,0,0-14.127-35.346A280.033,280.033,0,0,0,219.5,89.022c2.881.831,5.651,1.717,8.31,2.6,25.817,8.864,43.933,22.05,43.933,32.132,0,10.859-19.335,24.875-46.98,34.016Zm-82.935-8.31a25.374,25.374,0,1,0-25.374-25.374A25.37,25.37,0,0,0,141.826,149.464Z" transform="translate(0 214.075) rotate(-49)" fill="#fca32b"/>
      </g>
      <g id="Group_13" data-name="Group 13" transform="translate(2917.342 1831.744)">
        <path id="Icon_simple-gatsby" data-name="Icon simple-gatsby" d="M120.573.01A119.912,119.912,0,0,0,.01,120.563,119.927,119.927,0,0,0,120.563,241.137,119.92,119.92,0,0,0,241.126,120.574,119.905,119.905,0,0,0,120.573.01ZM26.216,121.619l93.312,93.312a93.517,93.517,0,0,1-93.312-93.312ZM141.542,212.83,28.317,99.605A94.753,94.753,0,0,1,197.1,65.016l-13.62,11.52a76.968,76.968,0,0,0-63.95-33.543A75.942,75.942,0,0,0,47.184,94.358l98.549,98.559c24.125-8.393,42.982-29.352,48.229-54.522H153.071V120.574h61.86a94.509,94.509,0,0,1-73.389,92.257Z" transform="translate(9.99 13.99)" fill="#133783"/>
        <path id="Icon_simple-gatsby-2" data-name="Icon simple-gatsby" d="M120.573.01A119.912,119.912,0,0,0,.01,120.563,119.927,119.927,0,0,0,120.563,241.137,119.92,119.92,0,0,0,241.126,120.574,119.905,119.905,0,0,0,120.573.01ZM26.216,121.619l93.312,93.312a93.517,93.517,0,0,1-93.312-93.312ZM141.542,212.83,28.317,99.605A94.753,94.753,0,0,1,197.1,65.016l-13.62,11.52a76.968,76.968,0,0,0-63.95-33.543A75.942,75.942,0,0,0,47.184,94.358l98.549,98.559c24.125-8.393,42.982-29.352,48.229-54.522H153.071V120.574h61.86a94.509,94.509,0,0,1-73.389,92.257Z" transform="translate(-0.01 -0.01)" fill="#fca32b"/>
      </g>
      <g id="Group_16" data-name="Group 16" transform="translate(2079.189 1850.078)">
        <g id="Ellipse_2-3" data-name="Ellipse 2" transform="translate(10 8)" fill="none" stroke="#133783" stroke-width="30">
          <ellipse cx="308" cy="307" rx="308" ry="307" stroke="none"/>
          <ellipse cx="308" cy="307" rx="293" ry="292" fill="none"/>
        </g>
        <g id="Ellipse_1-3" data-name="Ellipse 1" fill="none" stroke="#fca32b" stroke-width="30">
          <circle cx="307" cy="307" r="307" stroke="none"/>
          <circle cx="307" cy="307" r="292" fill="none"/>
        </g>
      </g>
      <g id="Group_18" data-name="Group 18" transform="translate(2147.281 994.079)">
        <g id="Ellipse_2-4" data-name="Ellipse 2" transform="translate(8 6)" fill="none" stroke="#133783" stroke-width="30">
          <ellipse cx="241" cy="240" rx="241" ry="240" stroke="none"/>
          <ellipse cx="241" cy="240" rx="226" ry="225" fill="none"/>
        </g>
        <g id="Ellipse_1-4" data-name="Ellipse 1" fill="none" stroke="#fca32b" stroke-width="30">
          <circle cx="240" cy="240" r="240" stroke="none"/>
          <circle cx="240" cy="240" r="225" fill="none"/>
        </g>
      </g>
      <g id="Group_19" data-name="Group 19" transform="translate(1094.275 2160.079)">
        <g id="Ellipse_2-5" data-name="Ellipse 2" transform="translate(8 6)" fill="none" stroke="#133783" stroke-width="30">
          <ellipse cx="241" cy="240" rx="241" ry="240" stroke="none"/>
          <ellipse cx="241" cy="240" rx="226" ry="225" fill="none"/>
        </g>
        <g id="Ellipse_1-5" data-name="Ellipse 1" fill="none" stroke="#fca32b" stroke-width="30">
          <circle cx="240" cy="240" r="240" stroke="none"/>
          <circle cx="240" cy="240" r="225" fill="none"/>
        </g>
      </g>
      <g id="Group_17" data-name="Group 17" transform="translate(750.052 1136.078)">
        <g id="Ellipse_2-6" data-name="Ellipse 2" transform="translate(6 4)" fill="none" stroke="#133783" stroke-width="30">
          <circle cx="170" cy="170" r="170" stroke="none"/>
          <circle cx="170" cy="170" r="155" fill="none"/>
        </g>
        <g id="Ellipse_1-6" data-name="Ellipse 1" fill="none" stroke="#fca32b" stroke-width="30">
          <circle cx="170" cy="170" r="170" stroke="none"/>
          <circle cx="170" cy="170" r="155" fill="none"/>
        </g>
      </g>
    </g>
  </g>
</svg>
