<svg xmlns="http://www.w3.org/2000/svg" xmlns:xlink="http://www.w3.org/1999/xlink" width="743.411" height="283.822" viewBox="0 0 743.411 283.822">
  <defs>
    <clipPath id="clip-path">
      <rect id="Rectangle_23" data-name="Rectangle 23" width="245" height="245" transform="translate(209.807 207.807)" fill="#fff" stroke="#707070" stroke-width="1"/>
    </clipPath>
    <linearGradient id="linear-gradient" x1="2.188" y1="1.071" x2="2.563" y2="0.234" gradientUnits="objectBoundingBox">
      <stop offset="0" stop-color="#ffd60a"/>
      <stop offset="0.648" stop-color="#ffd60a"/>
      <stop offset="1" stop-color="#fff"/>
    </linearGradient>
    <linearGradient id="linear-gradient-2" x1="0.556" y1="0.16" x2="0.319" y2="1" gradientUnits="objectBoundingBox">
      <stop offset="0" stop-color="#ffd60a"/>
      <stop offset="1" stop-color="#ffc300"/>
    </linearGradient>
  </defs>
  <g id="Group_9" data-name="Group 9" transform="translate(-32.589 -209.178)">
    <g id="Mask_Group_1" data-name="Mask Group 1" transform="matrix(0.985, 0.174, -0.174, 0.985, -95.402, -31.905)" clip-path="url(#clip-path)">
      <g id="layer3" transform="translate(268.675 208.161)" opacity="0.995">
        <path id="path865" d="M311.188,119.365s-23.214,16.141-31.557,23.577-16.141,15.053-18.68,17.955a59.04,59.04,0,0,0-4.534,5.985l3.809,18.317s-10.156-5.259-11.788-7.617a40.9,40.9,0,0,0-5.078-5.441s-6.166,13.058-7.073,20.675-1.995,12.7-1.995,20.856,1.995,20.856,3.083,23.94,3.809,9.068,3.809,9.068-8.524-9.794-9.249-11.789-2.358-8.161-2.358-8.161-2.72,23.577-2.72,32.645,4.534,29.2,5.441,32.282,4.9,15.053,4.9,15.053-12.151-5.985-14.328-8.343,6.166,27.385,15.778,41.713,24.484,23.577,24.484,23.577,19.768-10.882,27.93-19.406,17.048-22.489,17.048-22.489l2.72-4.715s-8.161.363-9.794.181-1.995-.907-1.995-.907,19.95-7.98,30.106-28.474,6.71-23.758,6.71-23.758-7.617,3.446-11.788,2.9-4.194-.567-4.194-.567,5.287-1.051,13.623-13.618,12.183-22.7,13.081-28.085,3.206-20.519,3.206-21.545-18.21.256-18.21.256,10.131-10,12.7-11.8a15.948,15.948,0,0,0,3.334-2.821s-16.654-53.363-36.412-69.45Z" transform="translate(-222.517 -119.364)" fill="url(#linear-gradient)"/>
        <path id="path865-9" d="M243.36,206.859s-6.166,13.058-7.073,20.675-1.995,12.7-1.995,20.856,1.995,20.856,3.083,23.94,3.809,9.068,3.809,9.068-8.524-9.793-9.249-11.788-2.358-8.161-2.358-8.161-2.72,23.577-2.72,32.645,4.534,29.2,5.441,32.282,4.9,15.053,4.9,15.053-12.151-5.985-14.328-8.343,6.166,27.386,15.778,41.713,24.484,23.577,24.484,23.577,19.768-10.882,27.93-19.406,17.048-22.489,17.048-22.489l2.72-4.715s-8.161.363-9.793.181-1.995-.907-1.995-.907,19.95-7.98,30.106-28.474,6.71-23.758,6.71-23.758-7.617,3.446-11.788,2.9-4.194-.567-4.194-.567,5.287-1.051,13.623-13.618,12.183-22.7,13.081-28.085,3.206-20.519,3.206-21.545c-5.09,3.1-20.788,12.536-31.858,8.225-11.048-4.3-27.79-16.207-38-11.526-11.975,5.492-32.191-12.376-36.566-27.735Z" transform="translate(-222.517 -154.083)" fill="url(#linear-gradient-2)"/>
      </g>
    </g>
    <text id="Enodd" transform="translate(241 454)" fill="#ffc300" font-size="157" font-family="Montserrat-Bold, Montserrat" font-weight="700"><tspan x="0" y="0">Enodd</tspan></text>
  </g>
</svg>
