<svg id="Group_7" data-name="Group 7" xmlns="http://www.w3.org/2000/svg" width="84.84" height="98.98" viewBox="0 0 84.84 98.98">
  <g id="Rectangle_19" data-name="Rectangle 19" transform="translate(12.369 14.75)" fill="#fff" stroke="#707070" stroke-width="1">
    <rect width="61" height="69" stroke="none"/>
    <rect x="0.5" y="0.5" width="60" height="68" fill="none"/>
  </g>
  <path id="Icon_awesome-css3-alt" data-name="Icon awesome-css3-alt" d="M0,2.25,7.711,89.7,42.42,101.23,77.129,89.7,84.84,2.25ZM69.176,19.925l-1.06,10.45L42.641,41.268l-.066.022H67.209L64.381,73.679l-21.7,6.341L20.857,73.569,19.443,57.241h10.8l.707,8.462,11.621,2.938,12.085-3.4.817-13.61-36.742-.11V51.5l-.044.022L17.9,41.29,42.663,30.972l1.436-.6H16.946l-1.281-10.45Z" transform="translate(0 -2.25)" fill="#2965f1"/>
</svg>
