<svg xmlns="http://www.w3.org/2000/svg" width="139.153" height="33.024" viewBox="0 0 139.153 33.024">
  <g id="Group_21" data-name="Group 21" transform="translate(-678.029 -151.001)">
    <path id="Icon_awesome-code" data-name="Icon awesome-code" d="M86.385,32.994l-3.935-1.142a.775.775,0,0,1-.529-.961l8.8-30.33a.775.775,0,0,1,.961-.529l3.935,1.142a.775.775,0,0,1,.529.961l-8.8,30.33a.773.773,0,0,1-.961.529Zm-105.22-7.237,2.806-2.993a.774.774,0,0,0-.052-1.109l-5.844-5.141,5.844-5.141a.769.769,0,0,0,.052-1.109L-18.835,7.27a.775.775,0,0,0-1.1-.032l-9.3,8.708a.769.769,0,0,0,0,1.129l9.3,8.715a.769.769,0,0,0,1.1-.032Zm118.973.039,9.3-8.715a.769.769,0,0,0,0-1.129l-9.3-8.721a.781.781,0,0,0-1.1.032l-2.806,2.993a.774.774,0,0,0,.052,1.109l5.844,5.147-5.844,5.141a.769.769,0,0,0-.052,1.109l2.806,2.993a.775.775,0,0,0,1.1.039Z" transform="translate(707.502 150.999)" fill="#fca311"/>
    <path id="Path_1" data-name="Path 1" d="M-46.034,0V-2.645l2.355-.461V-18.918l-2.355-.461v-2.66h17.111v5.952h-3.391l-.2-2.549h-6.743V-13.1H-31.8v3.41h-7.456v6.3h7.106l.2-2.632h3.357V0ZM-26.3,0V-2.645l2.122-.461V-13.257l-2.346-.461v-2.66h6.467l.193,2.344a5.958,5.958,0,0,1,2.023-1.951,5.387,5.387,0,0,1,2.742-.7,4.829,4.829,0,0,1,3.813,1.556Q-9.9-13.568-9.9-10.236v7.13l2.122.461V0h-8.449V-2.645l1.9-.461v-7.116a3.339,3.339,0,0,0-.654-2.33,2.545,2.545,0,0,0-1.934-.689,3.3,3.3,0,0,0-1.657.4,3.339,3.339,0,0,0-1.176,1.14v8.594l1.786.461V0ZM1.319.318A7.852,7.852,0,0,1-2.846-.74,6.957,6.957,0,0,1-5.508-3.682a9.731,9.731,0,0,1-.926-4.344V-8.34a9.657,9.657,0,0,1,.926-4.32,7.054,7.054,0,0,1,2.657-2.95,7.717,7.717,0,0,1,4.139-1.07,7.76,7.76,0,0,1,4.156,1.065A7.036,7.036,0,0,1,8.1-12.673,9.675,9.675,0,0,1,9.022-8.34v.314A9.723,9.723,0,0,1,8.1-3.686,6.994,6.994,0,0,1,5.447-.742,7.73,7.73,0,0,1,1.319.318Zm0-3.386a2.781,2.781,0,0,0,1.871-.621,3.664,3.664,0,0,0,1.08-1.737,8.666,8.666,0,0,0,.352-2.6V-8.34a8.514,8.514,0,0,0-.352-2.567,3.7,3.7,0,0,0-1.087-1.742,2.807,2.807,0,0,0-1.893-.63,2.784,2.784,0,0,0-1.878.63,3.648,3.648,0,0,0-1.08,1.742A8.688,8.688,0,0,0-2.014-8.34v.314a8.881,8.881,0,0,0,.344,2.609A3.549,3.549,0,0,0-.587-3.684,2.873,2.873,0,0,0,1.319-3.068ZM17.445.318A5.6,5.6,0,0,1,14.092-.688a6.306,6.306,0,0,1-2.145-2.819,11.1,11.1,0,0,1-.743-4.23v-.318a12.562,12.562,0,0,1,.747-4.528,6.786,6.786,0,0,1,2.144-3.02,5.278,5.278,0,0,1,3.325-1.079,4.973,4.973,0,0,1,2.369.537,5.287,5.287,0,0,1,1.75,1.524v-5.872l-2.365-.461v-2.66h6.785V-3.106l2.122.461V0H22.129l-.336-2A5.286,5.286,0,0,1,19.959-.271,5.129,5.129,0,0,1,17.445.318Zm1.308-3.44a3.287,3.287,0,0,0,1.624-.391,3.179,3.179,0,0,0,1.162-1.132V-11.6a3.43,3.43,0,0,0-1.148-1.21,2.976,2.976,0,0,0-1.608-.433,2.532,2.532,0,0,0-1.8.656,3.868,3.868,0,0,0-1.027,1.82,10.04,10.04,0,0,0-.328,2.711v.318a6.679,6.679,0,0,0,.725,3.382A2.568,2.568,0,0,0,18.753-3.122ZM35.789.318A5.6,5.6,0,0,1,32.435-.688a6.306,6.306,0,0,1-2.145-2.819,11.1,11.1,0,0,1-.743-4.23v-.318a12.562,12.562,0,0,1,.747-4.528,6.786,6.786,0,0,1,2.144-3.02,5.278,5.278,0,0,1,3.325-1.079,4.973,4.973,0,0,1,2.369.537,5.287,5.287,0,0,1,1.75,1.524v-5.872l-2.365-.461v-2.66H44.3V-3.106l2.122.461V0H40.472l-.336-2A5.286,5.286,0,0,1,38.3-.271,5.129,5.129,0,0,1,35.789.318ZM37.1-3.122a3.287,3.287,0,0,0,1.624-.391,3.179,3.179,0,0,0,1.162-1.132V-11.6a3.43,3.43,0,0,0-1.148-1.21,2.976,2.976,0,0,0-1.608-.433,2.532,2.532,0,0,0-1.8.656,3.868,3.868,0,0,0-1.027,1.82,10.04,10.04,0,0,0-.328,2.711v.318a6.679,6.679,0,0,0,.725,3.382A2.568,2.568,0,0,0,37.1-3.122Z" transform="translate(740.303 179.161)" fill="#fff"/>
  </g>
</svg>
