<svg id="Group_8" data-name="Group 8" xmlns="http://www.w3.org/2000/svg" width="98.976" height="98.98" viewBox="0 0 98.976 98.98">
  <g id="Ellipse_1" data-name="Ellipse 1" transform="translate(3.745 3.377)" fill="#fff" stroke="#707070" stroke-width="1">
    <ellipse cx="46" cy="46" rx="46" ry="46" stroke="none"/>
    <ellipse cx="46" cy="46" rx="45.5" ry="45.5" fill="none"/>
  </g>
  <path id="Icon_simple-gatsby" data-name="Icon simple-gatsby" d="M49.5.01A49.223,49.223,0,0,0,.01,49.5,49.229,49.229,0,0,0,49.5,98.99,49.226,49.226,0,0,0,98.986,49.5,49.22,49.22,0,0,0,49.5.01ZM10.768,49.93l38.3,38.3a38.388,38.388,0,0,1-38.3-38.3Zm47.34,37.441L11.63,40.893a38.9,38.9,0,0,1,69.283-14.2l-5.591,4.729A31.6,31.6,0,0,0,49.071,17.654a31.174,31.174,0,0,0-29.7,21.085L59.828,79.2a30.652,30.652,0,0,0,19.8-22.381H62.841V49.5H88.233a38.8,38.8,0,0,1-30.126,37.87Z" transform="translate(-0.01 -0.01)" fill="#639"/>
</svg>
