<svg xmlns="http://www.w3.org/2000/svg" width="80.758" height="78.74" viewBox="0 0 80.758 78.74">
  <path id="Icon_awesome-github" data-name="Icon awesome-github" d="M27.012,63.964c0,.326-.374.586-.847.586-.537.049-.912-.212-.912-.586,0-.326.374-.586.847-.586C26.588,63.329,27.012,63.589,27.012,63.964Zm-5.064-.733c-.114.326.212.7.7.8a.764.764,0,0,0,1.009-.326c.1-.326-.212-.7-.7-.847A.836.836,0,0,0,21.948,63.231Zm7.2-.277c-.472.114-.8.423-.749.8.049.326.472.537.961.423.472-.114.8-.423.749-.749C30.056,63.117,29.617,62.906,29.144,62.954ZM39.858.563C17.275.563,0,17.707,0,40.29A40.82,40.82,0,0,0,27.6,79.236c2.084.374,2.817-.912,2.817-1.97,0-1.009-.049-6.578-.049-10,0,0-11.4,2.442-13.791-4.852,0,0-1.856-4.738-4.526-5.959,0,0-3.729-2.556.261-2.507a8.594,8.594,0,0,1,6.285,4.2c3.566,6.285,9.541,4.477,11.869,3.4a9.049,9.049,0,0,1,2.605-5.487c-9.1-1.009-18.284-2.328-18.284-17.991,0-4.477,1.237-6.724,3.843-9.59A15.383,15.383,0,0,1,19.05,17.43c3.4-1.058,11.234,4.4,11.234,4.4a38.464,38.464,0,0,1,20.45,0s7.832-5.471,11.234-4.4a15.376,15.376,0,0,1,.423,11.055c2.605,2.882,4.2,5.129,4.2,9.59,0,15.712-9.59,16.966-18.692,17.991,1.5,1.286,2.768,3.729,2.768,7.555,0,5.487-.049,12.276-.049,13.612,0,1.058.749,2.345,2.817,1.97C69.719,73.8,80.758,58.347,80.758,40.29,80.758,17.707,62.441.563,39.858.563ZM15.826,56.718c-.212.163-.163.537.114.847.261.261.635.374.847.163.212-.163.163-.537-.114-.847C16.412,56.621,16.038,56.507,15.826,56.718ZM14.067,55.4c-.114.212.049.472.374.635a.484.484,0,0,0,.7-.114c.114-.212-.049-.472-.374-.635C14.442,55.188,14.181,55.237,14.067,55.4Zm5.275,5.8c-.261.212-.163.7.212,1.009.374.374.847.423,1.058.163.212-.212.114-.7-.212-1.009C20.043,60.984,19.554,60.935,19.343,61.2ZM17.487,58.8c-.261.163-.261.586,0,.961s.7.537.912.374a.743.743,0,0,0,0-1.009C18.17,58.754,17.747,58.591,17.487,58.8Z" transform="translate(0 -0.563)" fill="#e8e9eb"/>
</svg>
