<svg xmlns="http://www.w3.org/2000/svg" width="78.763" height="78.745" viewBox="0 0 78.763 78.745">
  <path id="Icon_awesome-instagram" data-name="Icon awesome-instagram" d="M39.385,21.421A20.189,20.189,0,1,0,59.574,41.61,20.157,20.157,0,0,0,39.385,21.421Zm0,33.315A13.126,13.126,0,1,1,52.51,41.61,13.149,13.149,0,0,1,39.385,54.736ZM65.109,20.6A4.709,4.709,0,1,1,60.4,15.886,4.7,4.7,0,0,1,65.109,20.6Zm13.372,4.779c-.3-6.308-1.74-11.9-6.361-16.5-4.6-4.6-10.191-6.044-16.5-6.361-6.5-.369-25.988-.369-32.489,0-6.29.3-11.878,1.74-16.5,6.343S.588,19.049.271,25.357c-.369,6.5-.369,25.988,0,32.489.3,6.308,1.74,11.9,6.361,16.5s10.191,6.044,16.5,6.361c6.5.369,25.988.369,32.489,0,6.308-.3,11.9-1.74,16.5-6.361,4.6-4.6,6.044-10.191,6.361-16.5.369-6.5.369-25.97,0-32.471Zm-8.4,39.447A13.289,13.289,0,0,1,62.6,72.307c-5.183,2.056-17.483,1.581-23.211,1.581s-18.046.457-23.211-1.581a13.289,13.289,0,0,1-7.485-7.485C6.632,59.638,7.107,47.338,7.107,41.61S6.65,23.565,8.688,18.4a13.289,13.289,0,0,1,7.485-7.485c5.183-2.056,17.483-1.581,23.211-1.581S57.43,8.875,62.6,10.913A13.289,13.289,0,0,1,70.082,18.4c2.056,5.183,1.581,17.483,1.581,23.211S72.137,59.656,70.082,64.822Z" transform="translate(0.005 -2.238)" fill="#e8e9eb"/>
</svg>
