<svg xmlns="http://www.w3.org/2000/svg" width="98.98" height="98.98" viewBox="0 0 98.98 98.98">
  <path id="Icon_awesome-js" data-name="Icon awesome-js" d="M0,2.25v98.98H98.98V2.25Zm53.865,77.2c0,9.633-5.656,14.03-13.9,14.03-7.446,0-11.754-3.844-13.963-8.506L33.583,80.4c1.458,2.585,2.784,4.772,5.987,4.772,3.049,0,4.993-1.193,4.993-5.855V47.7h9.3ZM75.87,93.475c-8.639,0-14.228-4.109-16.946-9.5L66.5,79.6c1.988,3.248,4.6,5.656,9.169,5.656,3.844,0,6.319-1.922,6.319-4.6,0-3.182-2.519-4.308-6.783-6.186l-2.32-.994c-6.716-2.85-11.157-6.451-11.157-14.03,0-6.982,5.325-12.284,13.61-12.284,5.921,0,10.163,2.055,13.212,7.446l-7.247,4.64c-1.591-2.85-3.314-3.977-5.987-3.977-2.718,0-4.441,1.723-4.441,3.977,0,2.784,1.723,3.911,5.722,5.656l2.32.994c7.91,3.38,12.35,6.849,12.35,14.626C91.269,88.88,84.685,93.475,75.87,93.475Z" transform="translate(0 -2.25)" fill="#f0db4f"/>
</svg>
