<svg xmlns="http://www.w3.org/2000/svg" width="113.114" height="98.98" viewBox="0 0 113.114 98.98">
  <path id="Icon_awesome-react" data-name="Icon awesome-react" d="M92.391,34.327q-1.79-.6-3.579-1.127c.2-.817.376-1.635.552-2.452,2.717-13.167.928-23.75-5.1-27.24-5.81-3.336-15.288.133-24.876,8.484-.95.817-1.878,1.679-2.762,2.541-.6-.574-1.215-1.149-1.834-1.7C44.737,3.905,34.663.149,28.632,3.662c-5.788,3.358-7.511,13.322-5.081,25.782.243,1.237.508,2.452.817,3.689-1.414.4-2.806.84-4.109,1.3C8.461,38.524,0,44.975,0,51.647,0,58.54,9.014,65.455,21.275,69.653c.994.331,1.988.663,3,.95-.331,1.326-.619,2.629-.884,3.977-2.32,12.261-.508,21.982,5.28,25.318,5.965,3.446,16-.088,25.76-8.638.773-.685,1.546-1.392,2.32-2.143.972.95,1.988,1.856,3,2.739,9.456,8.13,18.8,11.422,24.567,8.086,5.965-3.446,7.909-13.9,5.391-26.622q-.3-1.458-.663-2.982c.707-.2,1.392-.42,2.077-.641,12.747-4.22,21.982-11.046,21.982-18.05,0-6.694-8.7-13.189-20.723-17.321ZM62.5,15.57c8.218-7.158,15.885-9.964,19.375-7.953C85.609,9.76,87.045,18.42,84.7,29.8c-.155.751-.309,1.48-.508,2.209a113.1,113.1,0,0,0-14.868-2.342,111.623,111.623,0,0,0-9.411-11.731c.862-.817,1.7-1.591,2.585-2.364ZM36.939,63.113c1.127,1.922,2.276,3.844,3.491,5.722a100.04,100.04,0,0,1-10.251-1.657,103.2,103.2,0,0,1,3.6-9.831c1.016,1.944,2.055,3.866,3.159,5.766ZM30.245,36.536c3.181-.707,6.561-1.281,10.074-1.723-1.171,1.834-2.32,3.712-3.4,5.612-1.083,1.878-2.143,3.8-3.137,5.744-1.392-3.292-2.563-6.517-3.535-9.632ZM36.3,51.758c1.458-3.049,3.049-6.031,4.728-8.97S44.517,37,46.416,34.194c3.314-.243,6.694-.376,10.14-.376s6.849.133,10.14.376q2.817,4.175,5.368,8.55t4.794,8.925q-2.22,4.573-4.772,9.014c-1.679,2.938-3.469,5.788-5.346,8.616-3.292.243-6.716.353-10.185.353s-6.827-.11-10.074-.309q-2.883-4.209-5.435-8.616c-1.7-2.938-3.27-5.921-4.75-8.97ZM76.2,63.069c1.127-1.944,2.187-3.91,3.226-5.9a102.556,102.556,0,0,1,3.734,9.787,97.039,97.039,0,0,1-10.384,1.767C73.966,66.869,75.093,64.969,76.2,63.069Zm3.181-16.9c-1.038-1.944-2.1-3.888-3.2-5.788q-1.624-2.817-3.38-5.567a101.666,101.666,0,0,1,10.14,1.767A97.772,97.772,0,0,1,79.379,46.168ZM56.6,21.314a97.012,97.012,0,0,1,6.539,7.909c-4.374-.2-8.771-.2-13.145,0C52.161,26.373,54.392,23.722,56.6,21.314ZM30.974,7.771c3.712-2.165,11.952.928,20.634,8.616.552.486,1.1,1.016,1.679,1.546A112.242,112.242,0,0,0,43.81,29.665a116.456,116.456,0,0,0-14.846,2.3c-.287-1.127-.53-2.276-.773-3.424-2.077-10.693-.707-18.757,2.784-20.767ZM25.561,66.007c-.928-.265-1.834-.552-2.739-.862A45.058,45.058,0,0,1,8.9,58.253,9.913,9.913,0,0,1,4.75,51.647c0-4.043,6.981-9.213,17.055-12.725,1.259-.442,2.541-.84,3.822-1.215A117.475,117.475,0,0,0,31.04,51.758,120.764,120.764,0,0,0,25.561,66.007Zm25.76,21.651a40.436,40.436,0,0,1-12.46,7.8,9.778,9.778,0,0,1-7.8.287c-3.513-2.033-4.971-9.831-2.982-20.325.243-1.237.508-2.474.817-3.689a110.524,110.524,0,0,0,15,2.165,116.588,116.588,0,0,0,9.544,11.8C52.735,86.377,52.028,87.039,51.321,87.658Zm5.413-5.368c-2.253-2.43-4.507-5.125-6.694-8.02,2.121.088,4.308.133,6.517.133,2.276,0,4.507-.044,6.716-.155a95.272,95.272,0,0,1-6.539,8.042Zm28.875,6.628a9.819,9.819,0,0,1-3.645,6.915c-3.513,2.033-11-.619-19.088-7.556-.928-.8-1.856-1.657-2.806-2.541a109.289,109.289,0,0,0,9.323-11.842,108.907,108.907,0,0,0,15.067-2.32c.221.906.42,1.812.6,2.7a40.273,40.273,0,0,1,.552,14.647Zm4.021-23.75c-.619.2-1.237.4-1.878.574a112.228,112.228,0,0,0-5.634-14.1,111.669,111.669,0,0,0,5.413-13.9c1.149.331,2.253.685,3.314,1.038,10.3,3.535,17.519,8.793,17.519,12.814,0,4.33-7.71,9.92-18.734,13.565ZM56.557,61.854A10.118,10.118,0,1,0,46.439,51.735,10.117,10.117,0,0,0,56.557,61.854Z" transform="translate(0 -2.251)" fill="#61dbfb"/>
</svg>
