<svg xmlns="http://www.w3.org/2000/svg" width="131.961" height="98.98" viewBox="0 0 131.961 98.98">
  <path id="Icon_awesome-sass" data-name="Icon awesome-sass" d="M62.236,75.955C62.175,76.079,62.113,76.178,62.236,75.955ZM113.6,58.017A27.044,27.044,0,0,0,101.646,60.8c-1.217-2.454-2.474-4.6-2.68-6.206a16.567,16.567,0,0,1-.227-5.217,43.932,43.932,0,0,1,1.567-5.608c-.021-.227-.289-1.361-2.949-1.381s-4.949.515-5.215,1.217a25.326,25.326,0,0,0-1.093,3.938c-.474,2.412-5.318,11.031-8.06,15.526a16.01,16.01,0,0,1-1.835-4.536,16.567,16.567,0,0,1-.227-5.217,43.931,43.931,0,0,1,1.567-5.608c-.021-.227-.289-1.361-2.946-1.381s-4.949.515-5.217,1.217-.557,2.351-1.093,3.938-6.988,15.939-8.677,19.671c-.866,1.9-1.608,3.423-2.144,4.454-.082.165-.144.268-.186.351.062-.1.1-.206.1-.165-.454.887-.722,1.381-.722,1.381v.021c-.351.66-.742,1.258-.928,1.258a8.553,8.553,0,0,1,.062-4.1c.969-4.99,3.258-12.743,3.237-13.011-.021-.144.433-1.485-1.505-2.206a2.427,2.427,0,0,0-2.722.454c-.165,0-.289.412-.289.412s2.083-8.743-4-8.743c-3.794,0-9.072,4.165-11.666,7.938-1.629.887-5.155,2.8-8.866,4.846-1.423.784-2.887,1.588-4.268,2.351-.1-.1-.186-.206-.289-.309C23,58.2,9.377,52.635,9.954,42.058c.206-3.856,1.546-13.98,26.2-26.269C56.362,5.727,72.517,8.49,75.3,14.634c4,8.763-8.637,25.073-29.621,27.423-8,.887-12.2-2.206-13.254-3.361-1.093-1.217-1.258-1.278-1.67-1.052-.68.371-.247,1.443,0,2.083.619,1.629,3.2,4.516,7.586,5.959,3.856,1.258,13.233,1.959,24.572-2.433,12.739-4.907,22.654-18.578,19.747-30.021C79.7,1.6,60.414-2.212,42.18,4.263,31.316,8.118,19.567,14.18,11.115,22.078,1.076,31.48-.53,39.666.129,43.089,2.478,55.233,19.217,63.151,25.916,69.007c-.33.186-.639.351-.928.515-3.359,1.67-16.12,8.351-19.314,15.4-3.608,8,.6,13.732,3.359,14.516,8.617,2.392,17.44-1.918,22.18-8.99s4.165-16.31,1.979-20.516c-.021-.062-.062-.1-.082-.165.866-.515,1.753-1.031,2.639-1.546,1.709-1.01,3.379-1.938,4.843-2.742a32.027,32.027,0,0,0-1.732,8.784C38.489,78.8,40.366,84.677,42.8,86.987a4.327,4.327,0,0,0,3.173,1.031c2.845,0,4.124-2.351,5.544-5.155,1.753-3.423,3.3-7.4,3.3-7.4s-1.938,10.763,3.361,10.763c1.936,0,3.874-2.495,4.742-3.773v.021s.041-.082.144-.247c.206-.309.309-.495.309-.495v-.062c.784-1.34,2.495-4.413,5.07-9.485,3.34-6.557,6.534-14.743,6.534-14.743a41.5,41.5,0,0,0,1.278,5.32,49.806,49.806,0,0,0,2.763,6.186c-.784,1.072-1.258,1.691-1.258,1.691a.064.064,0,0,0,.021.041c-.619.825-1.32,1.711-2.041,2.577-2.637,3.134-5.773,6.722-6.186,7.753-.495,1.217-.371,2.124.577,2.825a5.012,5.012,0,0,0,3.235.515,14.3,14.3,0,0,0,4.846-1.113,16.949,16.949,0,0,0,4.163-2.186,9.308,9.308,0,0,0,4-8.206,17.077,17.077,0,0,0-1.505-5.815c.227-.33.474-.68.7-1.031a109.612,109.612,0,0,0,7.235-12.5,41.493,41.493,0,0,0,1.278,5.32,36.371,36.371,0,0,0,2.349,5.3A22.665,22.665,0,0,0,89.4,73.209c-1.526,4.392-.33,6.371,1.918,6.825a6.918,6.918,0,0,0,3.526-.722A16.384,16.384,0,0,0,99.3,77.024c2.577-1.9,5.07-4.557,4.905-8.165a15.34,15.34,0,0,0-1.113-4.825,25.168,25.168,0,0,1,12.8-1.485c11.481,1.34,13.728,8.516,13.3,11.505a7.623,7.623,0,0,1-3.65,5.155c-.8.495-1.052.68-.99,1.052.1.536.474.515,1.155.392a8.957,8.957,0,0,0,6.246-7.98c.33-7.011-6.41-14.722-18.351-14.66ZM25.112,87.853C21.32,92,16,93.564,13.713,92.245c-2.454-1.427-1.485-7.526,3.194-11.943a61.093,61.093,0,0,1,8.947-6.681c.557-.33,1.361-.825,2.351-1.423.165-.1.247-.144.247-.144.186-.124.392-.227.6-.351a16.458,16.458,0,0,1-3.938,16.145Zm27.7-18.846c-1.32,3.237-4.1,11.485-5.792,11.052-1.443-.371-2.33-6.66-.289-12.846a28.438,28.438,0,0,1,4.516-8.268c2.08-2.33,4.369-3.072,4.905-2.144C56.877,58.017,53.64,66.986,52.815,69.007ZM75.7,79.935c-.557.289-1.072.474-1.32.33-.186-.1.227-.495.227-.495s2.866-3.072,4-4.474c.66-.825,1.423-1.794,2.245-2.866,0,.1.021.206.021.33-.027,3.691-3.571,6.186-5.18,7.175Zm17.646-4.021c-.412-.289-.351-1.258,1.031-4.268A16.026,16.026,0,0,1,98.3,66.594a7.46,7.46,0,0,1,.392,2.227c-.021,4.639-3.34,6.371-5.338,7.093Z" transform="translate(0 -1.125)" fill="#c69"/>
</svg>
