<svg xmlns="http://www.w3.org/2000/svg" width="96.948" height="78.74" viewBox="0 0 96.948 78.74">
  <path id="Icon_awesome-twitter" data-name="Icon awesome-twitter" d="M86.983,23c.062.861.062,1.723.062,2.584,0,26.267-19.992,56.533-56.533,56.533A56.149,56.149,0,0,1,0,73.2a41.1,41.1,0,0,0,4.8.246,39.793,39.793,0,0,0,24.668-8.489,19.9,19.9,0,0,1-18.578-13.78,25.057,25.057,0,0,0,3.753.308,21.015,21.015,0,0,0,5.229-.677,19.872,19.872,0,0,1-15.933-19.5v-.246a20.011,20.011,0,0,0,8.981,2.522A19.9,19.9,0,0,1,6.767,7.01,56.478,56.478,0,0,0,47.736,27.8a22.43,22.43,0,0,1-.492-4.552A19.889,19.889,0,0,1,81.631,9.655a39.119,39.119,0,0,0,12.611-4.8,19.816,19.816,0,0,1-8.735,10.95,39.833,39.833,0,0,0,11.442-3.076A42.712,42.712,0,0,1,86.983,23Z" transform="translate(0 -3.381)" fill="#e8e9eb"/>
</svg>
