<svg width="115" height="115" viewBox="0 0 115 115" fill="none" xmlns="http://www.w3.org/2000/svg">
<g clip-path="url(#clip0_52_14)">
<mask id="mask0_52_14" style="mask-type:luminance" maskUnits="userSpaceOnUse" x="-1" y="-1" width="117" height="117">
<path d="M115.018 57.5L57.4999 -0.0175781L-0.0176498 57.5L57.4999 115.018L115.018 57.5Z" fill="white"/>
</mask>
<g mask="url(#mask0_52_14)">
<path d="M89.6527 52.1372L62.8629 25.3474C59.9011 22.3856 55.099 22.3856 52.1372 25.3474L25.3474 52.1372C22.3856 55.099 22.3856 59.901 25.3474 62.8629L52.1372 89.6526C55.099 92.6145 59.9011 92.6145 62.8629 89.6526L89.6527 62.8629C92.6145 59.901 92.6145 55.099 89.6527 52.1372Z" stroke="#FFCC00" stroke-width="6" stroke-linecap="round" stroke-linejoin="round"/>
<path d="M57.6033 63.295C54.5117 62.7709 53.0157 59.3385 53.7612 56.5079C54.8372 52.4215 59.4539 50.5173 63.3038 51.7298C68.3876 53.331 70.7083 59.1644 69.0176 64.0278C66.9022 70.1114 59.8385 72.852 53.9639 70.6776C46.8791 68.055 43.7167 59.7525 46.378 52.869C48.1511 48.2833 52.1921 44.8456 56.9416 43.652" stroke="#FFCC00" stroke-width="6" stroke-linecap="round"/>
<path d="M57.4194 24.9828C57.4396 24.9817 57.4594 24.9887 57.4745 25.0021C57.4896 25.0156 57.4987 25.0344 57.4999 25.0546V43.4173C57.4987 43.4375 57.4896 43.4564 57.4745 43.4699C57.4594 43.4833 57.4396 43.4903 57.4194 43.4891C57.3992 43.4903 57.3794 43.4833 57.3643 43.4699C57.3492 43.4564 57.3401 43.4375 57.3389 43.4173V25.0546C57.3401 25.0344 57.3492 25.0156 57.3643 25.0021C57.3794 24.9887 57.3992 24.9817 57.4194 24.9828Z" stroke="#FFCC00" stroke-width="6" stroke-linecap="round"/>
</g>
</g>
<defs>
<clipPath id="clip0_52_14">
<rect width="115" height="115" fill="white"/>
</clipPath>
</defs>
</svg>
