<svg width="106" height="106" viewBox="0 0 106 106" fill="none" xmlns="http://www.w3.org/2000/svg">
<path d="M106 106L0 106L9.26681e-06 -9.26681e-06L106 0L106 106Z" fill="#FF6A45"/>
<path fill-rule="evenodd" clip-rule="evenodd" d="M53 9.26682e-06L-9.26477e-06 52.9883L0 0L53 9.26682e-06ZM0.0233456 53.0117L-9.26885e-06 53.0117L-9.26477e-06 52.9883L0.0233456 53.0117Z" fill="#101626"/>
<path fill-rule="evenodd" clip-rule="evenodd" d="M106 9.26682e-06L53 52.9883L53 0L106 9.26682e-06ZM53.0233 53.0117L53 53.0117L53 52.9883L53.0233 53.0117Z" fill="#101626"/>
<path fill-rule="evenodd" clip-rule="evenodd" d="M53 52.9883L-9.26477e-06 105.977L0 52.9883L53 52.9883ZM0.0233495 106L-9.26885e-06 106L-9.26477e-06 105.977L0.0233495 106Z" fill="#101626"/>
<path fill-rule="evenodd" clip-rule="evenodd" d="M106 52.9884L53 105.977L53 52.9883L106 52.9884ZM53.0233 106L53 106L53 105.977L53.0233 106Z" fill="#101626"/>
</svg>
